<svg xmlns="http://www.w3.org/2000/svg" viewBox="0 0 24 24"><title>53.World</title><g id="_53.World" data-name="53.World"><path d="M12,24A12,12,0,1,1,24,12H22A10,10,0,1,0,12,22Z"/><polygon points="4.707 19.707 3.293 18.293 4.586 17 6.586 17 8 15.586 8 11.764 9 9.764 9 8.236 8.382 7 6.697 7 3.445 4.832 4.555 3.168 7.303 5 9.618 5 11 7.764 11 10.236 10 12.236 10 16.414 7.414 19 5.414 19 4.707 19.707"/><polygon points="16 13 14 13 14 10.586 16.178 8.407 16.882 7 15.882 5 17.105 2.553 18.895 3.447 18.118 5 19.118 7 17.822 9.593 16 11.414 16 13"/><rect x="17" y="13.757" width="2" height="8.485" transform="translate(-7.456 18) rotate(-45)"/><rect x="13.757" y="17" width="8.485" height="2" transform="translate(-7.456 18) rotate(-45)"/></g></svg>